<?xml version="1.0" encoding="UTF-8"?>
<!DOCTYPE svg PUBLIC "-//W3C//DTD SVG 1.1//EN" "http://www.w3.org/Graphics/SVG/1.1/DTD/svg11.dtd">
<!-- Creator: CorelDRAW X7 -->
<svg xmlns="http://www.w3.org/2000/svg" xml:space="preserve" width="229px" height="189px" version="1.1" style="shape-rendering:geometricPrecision; text-rendering:geometricPrecision; image-rendering:optimizeQuality; fill-rule:evenodd; clip-rule:evenodd"
viewBox="0 0 229 189"
 xmlns:xlink="http://www.w3.org/1999/xlink">
 <defs>
  <style type="text/css">
   <![CDATA[
    .fil0 {fill:#FEFEFE}
    .fil1 {fill:#FEFEFE;fill-rule:nonzero}
   ]]>
  </style>
 </defs>
 <g id="Layer_x0020_1">
  <metadata id="CorelCorpID_0Corel-Layer"/>
  <g id="_2270438516912">
   <path class="fil0" d="M18 15l148 0 5 -13 27 0 5 13 8 0c10,0 18,8 18,18l0 33 -54 0c-10,-18 -28,-30 -50,-30 -21,0 -40,12 -49,30l-76 0 0 -33c0,-10 8,-18 18,-18zm167 -9c4,0 7,3 7,7 0,3 -3,6 -7,6 -3,0 -6,-3 -6,-6 0,-4 3,-7 6,-7zm44 141l0 1c0,10 -8,18 -18,18l-193 0c-10,0 -18,-8 -18,-18l0 -1 229 0z"/>
   <rect class="fil0" x="25" width="27.8801" height="12.4369" rx="2" ry="2"/>
   <path class="fil0" d="M125 39c19,0 36,11 45,26l-8 0c-8,-12 -22,-20 -37,-20 -16,0 -30,8 -37,20l-8 0c9,-15 26,-26 45,-26z"/>
   <polygon class="fil1" points="6,77 61,77 61,92 42,92 42,135 24,135 24,92 6,92 "/>
   <path id="1" class="fil1" d="M114 118l-33 0c1,3 1,5 2,6 2,2 4,3 7,3 1,0 3,0 4,-1 1,-1 2,-2 3,-3l16 2c-2,4 -5,7 -9,9 -3,2 -8,2 -15,2 -5,0 -10,0 -13,-2 -3,-2 -6,-4 -8,-7 -2,-4 -3,-8 -3,-13 0,-6 2,-12 6,-16 4,-4 10,-6 18,-6 6,0 11,1 14,3 4,2 6,5 8,8 2,3 3,8 3,14l0 1zm-17 -7c0,-3 -1,-6 -2,-7 -1,-1 -3,-2 -5,-2 -3,0 -5,1 -7,3 -1,1 -1,3 -2,6l16 0z"/>
   <polygon id="2" class="fil1" points="126,77 171,77 171,90 145,90 145,100 167,100 167,112 145,112 145,135 126,135 "/>
   <path id="3" class="fil1" d="M196 107l-15 -2c0,-2 1,-5 2,-6 1,-2 3,-3 5,-4 2,-1 4,-2 6,-2 3,0 6,-1 9,-1 5,0 9,1 12,1 2,1 5,2 7,3 1,2 2,3 3,6 1,2 1,4 1,6l0 18c0,2 1,4 1,5 0,1 1,3 1,4l-15 0c0,-1 -1,-1 -1,-2 0,-1 0,-1 -1,-3 -2,2 -4,4 -6,5 -3,1 -6,1 -10,1 -5,0 -9,-1 -12,-3 -2,-2 -3,-5 -3,-9 0,-3 0,-6 2,-8 2,-2 6,-3 11,-4 6,-1 10,-2 12,-3 2,0 3,-1 5,-2 0,-2 0,-3 -1,-4 -1,-1 -2,-1 -4,-1 -3,0 -5,0 -6,1 -1,1 -2,2 -3,4zm14 8c-2,1 -4,2 -7,2 -3,1 -5,2 -6,3 -1,1 -1,2 -1,3 0,1 0,2 1,3 1,1 2,1 4,1 2,0 4,0 5,-1 2,-1 3,-2 4,-3 0,-1 0,-3 0,-5l0 -3z"/>
   <path class="fil1" d="M41 177l-1 3c0,1 -1,3 -1,4l0 0c0,-1 0,-3 -1,-4l-1 -3 -2 0 0 9 1 0 0 -3c1,-2 1,-3 1,-4l0 0c0,1 0,2 0,3l1 4 2 0 1 -4c0,-1 1,-2 1,-3l0 0c0,1 0,2 0,4l0 3 2 0 -1 -9 -2 0z"/>
   <path id="1" class="fil1" d="M49 179l0 5c0,0 0,1 -1,1 -1,0 -1,-1 -1,-2l0 -4 -2 0 0 4c0,2 1,3 2,3 1,0 2,0 2,-1l0 0 0 1 2 0c0,0 0,-1 0,-2l0 -5 -2 0z"/>
   <polygon id="2" class="fil1" points="52,177 52,186 54,186 54,177 "/>
   <path id="3" class="fil1" d="M55 179l0 2 1 0 0 3c0,1 0,2 2,2 0,0 1,0 1,0l0 -1c0,0 0,0 0,0 -1,0 -1,-1 -1,-1l0 -3 1 0 0 -2 -1 0 0 -1 -2 0 0 1 -1 0z"/>
   <path id="4" class="fil1" d="M62 178c0,-1 0,-1 -1,-1 0,0 -1,0 -1,1 0,0 1,1 1,1 1,0 1,-1 1,-1zm-2 1l0 7 2 0 0 -7 -2 0z"/>
   <path id="5" class="fil1" d="M69 180c0,0 -1,-1 -2,-1 -1,0 -1,1 -2,1l0 0 0 -1 -1 0c0,1 0,2 0,2l0 5 1 0 0 -4c0,-1 1,-1 1,-1 1,0 1,0 1,1l0 4 2 0 0 -4c0,-1 1,-1 1,-1 1,0 1,0 1,1l0 4 2 0 0 -4c0,-2 -1,-3 -2,-3 -1,0 -2,1 -2,1l0 0z"/>
   <path id="6" class="fil1" d="M80 183c0,0 0,0 0,0 0,-3 -1,-4 -3,-4 -2,0 -3,2 -3,4 0,2 1,3 3,3 1,0 2,0 2,0l0 -1c0,0 -1,0 -2,0 0,0 -1,-1 -1,-2l4 0zm-4 -1c0,-1 0,-1 1,-1 1,0 1,0 1,1l-2 0z"/>
   <path id="7" class="fil1" d="M85 177l0 3 0 0c0,0 -1,-1 -2,-1 -1,0 -2,2 -2,4 0,2 1,3 2,3 1,0 2,0 2,-1l0 0 0 1 2 0c0,0 0,-1 0,-2l0 -7 -2 0zm0 6c0,1 -1,2 -1,2 -1,0 -2,-1 -2,-2 0,-1 1,-2 2,-2 0,0 1,0 1,1l0 1z"/>
   <path id="8" class="fil1" d="M90 178c0,-1 0,-1 -1,-1 0,0 -1,0 -1,1 0,0 0,1 1,1 1,0 1,-1 1,-1zm-2 1l0 7 2 0 0 -7 -2 0z"/>
   <path id="9" class="fil1" d="M92 181c0,0 1,0 2,0 0,0 1,0 1,1 -2,0 -4,1 -4,2 0,1 1,2 2,2 1,0 1,0 2,-1l0 0 0 1 2 0c-1,0 -1,-1 -1,-1l0 -3c0,-1 0,-3 -2,-3 -1,0 -2,1 -2,1l0 1zm3 3c0,1 -1,1 -1,1 -1,0 -1,0 -1,-1 0,-1 1,-1 2,-1l0 1z"/>
   <path id="10" class="fil1" d="M100 186c1,0 2,0 3,0 2,0 3,-1 3,-3 0,-1 -1,-2 -2,-2 -1,-1 -2,-1 -2,-2 0,0 1,-1 2,-1 0,0 1,1 1,1l1 -2c-1,0 -2,0 -2,0 -2,0 -4,1 -4,2 0,2 1,3 3,3 1,1 1,1 1,2 0,0 0,1 -1,1 -1,0 -2,-1 -2,-1l-1 2z"/>
   <path id="11" class="fil1" d="M113 177l-1 3c0,1 0,3 0,4l-1 0c0,-1 0,-3 0,-4l-1 -3 -2 0 -1 9 2 0 0 -3c0,-2 0,-3 0,-4l0 0c0,1 0,2 1,3l1 4 1 0 1 -4c0,-1 1,-2 1,-3l0 0c0,1 0,2 0,4l0 3 2 0 0 -9 -3 0z"/>
   <path id="12" class="fil1" d="M124 177l-2 0 -2 3c0,0 0,1 -1,1l0 0 0 -4 -1 0 0 9 1 0 0 -3 1 -1 2 4 2 0 -3 -5 3 -4z"/>
   <path id="13" class="fil1" d="M130 177l0 3c0,1 0,2 0,4l0 0c0,-1 -1,-2 -1,-3l-2 -4 -2 0 0 9 2 0 0 -3c0,-1 0,-3 -1,-4l1 0c0,1 0,2 1,3l2 4 2 0 0 -9 -2 0z"/>
   <path id="14" class="fil1" d="M136 179c1,0 1,-1 2,-1 1,0 1,1 1,1 0,1 -1,2 -2,2l0 0 0 1 0 0c1,0 2,0 2,1 0,1 0,2 -1,2 -1,0 -2,0 -2,-1l0 2c0,0 1,0 2,0 2,0 3,-1 3,-3 0,-1 -1,-2 -2,-2l0 0c1,0 2,-1 2,-2 0,-1 -1,-2 -3,-2 -1,0 -2,0 -2,1l0 1z"/>
   <path id="15" class="fil1" d="M145 186c1,0 1,0 2,0 2,0 3,0 4,-1 0,0 0,-1 0,-2 0,-1 0,-2 -1,-2l0 0c1,0 1,-1 1,-2 0,-1 0,-1 -1,-2 0,0 -1,0 -2,0 -1,0 -2,0 -3,0l0 9zm2 -8c0,0 1,0 1,0 1,0 1,1 1,1 0,1 0,2 -1,2l-1 0 0 -3zm1 4c1,0 2,0 2,1 0,1 -1,2 -2,2 0,0 -1,0 -1,0l0 -3 1 0z"/>
   <path id="16" class="fil1" d="M153 181c1,0 1,0 2,0 1,0 1,0 1,1 -2,0 -4,1 -4,2 0,1 1,2 2,2 1,0 2,0 2,-1l0 0 0 1 2 0c0,0 0,-1 0,-1l0 -3c0,-1 -1,-3 -3,-3 -1,0 -2,1 -2,1l0 1zm3 3c0,1 -1,1 -1,1 -1,0 -1,0 -1,-1 0,-1 1,-1 2,-1l0 1z"/>
   <path id="17" class="fil1" d="M161 180l0 -1 -2 0c0,1 0,2 0,2l0 5 2 0 0 -4c0,-1 1,-1 1,-1 1,0 1,0 1,1l0 4 2 0 0 -4c0,-2 -1,-3 -2,-3 -1,0 -2,1 -2,1l0 0z"/>
   <path id="18" class="fil1" d="M170 177l0 3 0 0c0,0 0,-1 -1,-1 -2,0 -3,2 -3,4 0,2 1,3 3,3 0,0 1,0 2,-1l0 0 0 1 1 0c0,0 0,-1 0,-2l0 -7 -2 0zm0 6c0,1 0,2 -1,2 -1,0 -1,-1 -1,-2 0,-1 0,-2 1,-2 1,0 1,0 1,1l0 1z"/>
   <path id="19" class="fil1" d="M178 179l0 5c0,0 -1,1 -2,1 0,0 -1,-1 -1,-2l0 -4 -1 0 0 4c0,2 1,3 2,3 1,0 1,0 2,-1l0 0 0 1 1 0c0,0 0,-1 0,-2l0 -5 -1 0z"/>
   <path id="20" class="fil1" d="M182 180l0 -1 -1 0c0,1 0,2 0,2l0 5 2 0 0 -4c0,-1 0,-1 1,-1 1,0 1,0 1,1l0 4 2 0 0 -4c0,-2 -1,-3 -3,-3 -1,0 -1,1 -1,1l-1 0z"/>
   <path id="21" class="fil1" d="M192 180l0 0c0,0 -1,-1 -1,-1 -2,0 -3,2 -3,4 0,2 1,3 2,3 1,0 2,0 2,-1l0 0 0 1c0,1 -1,1 -2,1 0,0 -1,0 -1,0l-1 1c1,1 2,1 2,1 4,0 4,-3 4,-4l0 -4c0,0 0,-1 0,-2l-2 0 0 1zm0 3c0,1 -1,2 -1,2 -1,0 -1,-1 -1,-2 0,-1 0,-2 1,-2 0,0 1,0 1,1l0 1z"/>
  </g>
 </g>
</svg>
